<svg xmlns="http://www.w3.org/2000/svg" viewBox="0 0 100 100"><rect width="100" height="100" rx="16" fill="#132E49"/><g fill="#DDE4EC"><circle cx="14.0" cy="28.4" r="1.78"/><circle cx="14.0" cy="71.6" r="1.78"/><circle cx="21.2" cy="21.2" r="1.92"/><circle cx="21.2" cy="35.6" r="2.81"/><circle cx="21.2" cy="64.4" r="2.81"/><circle cx="21.2" cy="78.8" r="1.92"/><circle cx="28.4" cy="14.0" r="1.78"/><circle cx="28.4" cy="28.4" r="2.98"/><circle cx="28.4" cy="42.8" r="3.80"/><circle cx="28.4" cy="57.2" r="3.80"/><circle cx="28.4" cy="71.6" r="2.98"/><circle cx="28.4" cy="86.0" r="1.78"/><circle cx="35.6" cy="21.2" r="2.81"/><circle cx="35.6" cy="35.6" r="4.05"/><circle cx="35.6" cy="50.0" r="4.68"/><circle cx="35.6" cy="64.4" r="4.05"/><circle cx="35.6" cy="78.8" r="2.81"/><circle cx="42.8" cy="28.4" r="3.80"/><circle cx="42.8" cy="42.8" r="5.12"/><circle cx="42.8" cy="57.2" r="5.12"/><circle cx="42.8" cy="71.6" r="3.80"/><circle cx="50.0" cy="35.6" r="4.68"/><circle cx="50.0" cy="50.0" r="6.19"/><circle cx="50.0" cy="64.4" r="4.68"/><circle cx="57.2" cy="28.4" r="3.80"/><circle cx="57.2" cy="42.8" r="5.12"/><circle cx="57.2" cy="57.2" r="5.12"/><circle cx="57.2" cy="71.6" r="3.80"/><circle cx="64.4" cy="21.2" r="2.81"/><circle cx="64.4" cy="35.6" r="4.05"/><circle cx="64.4" cy="50.0" r="4.68"/><circle cx="64.4" cy="64.4" r="4.05"/><circle cx="64.4" cy="78.8" r="2.81"/><circle cx="71.6" cy="14.0" r="1.78"/><circle cx="71.6" cy="28.4" r="2.98"/><circle cx="71.6" cy="42.8" r="3.80"/><circle cx="71.6" cy="57.2" r="3.80"/><circle cx="71.6" cy="71.6" r="2.98"/><circle cx="71.6" cy="86.0" r="1.78"/><circle cx="78.8" cy="21.2" r="1.92"/><circle cx="78.8" cy="35.6" r="2.81"/><circle cx="78.8" cy="64.4" r="2.81"/><circle cx="78.8" cy="78.8" r="1.92"/><circle cx="86.0" cy="28.4" r="1.78"/><circle cx="86.0" cy="71.6" r="1.78"/></g></svg>